<svg id="397044b6-2926-48a6-bf15-d5551e67b9da" data-name="Acerca Menú" xmlns="http://www.w3.org/2000/svg" viewBox="0 0 292.3 356">
  <defs>
    <style>
      .e2c6a2b6-a7dd-4349-9535-5c0e0e8157c4, .e7a07700-151e-4017-b263-8a3f659deef0 {
        fill: #c6d4de;
      }

      .e7a07700-151e-4017-b263-8a3f659deef0 {
        font-size: 40px;
        font-family: Segoe UI;
        font-weight: 700;
      }

      .\33 9d7d364-8d5a-4fd0-9d23-70167f291445 {
        fill: #036;
      }
    </style>
  </defs>
  <title>hacemos</title>
  <g id="96a75e5e-9235-4994-8975-dc0bad42e3de" data-name="Que">
    <circle class="e2c6a2b6-a7dd-4349-9535-5c0e0e8157c4" cx="153.5" cy="135.5" r="135.5"/>
    <text class="e7a07700-151e-4017-b263-8a3f659deef0" transform="translate(0 330.6)">¿Qué Hacemos?</text>
    <g>
      <path class="39d7d364-8d5a-4fd0-9d23-70167f291445" d="M2906.1,703.1a48.9,48.9,0,0,0,10.5-8.8l11,6.4,10-17.4-11-6.3a48.3,48.3,0,0,0,2.4-13.5l12.5-2.2-3.5-19.7-12.5,2.2a48.6,48.6,0,0,0-6.9-11.8l8.2-9.7-15.4-12.9-8.2,9.7a48.2,48.2,0,0,0-12.8-4.7V601.6h-20v12.7a48.2,48.2,0,0,0-12.8,4.7l-8.2-9.7L2834,622.1l8.2,9.7a48.6,48.6,0,0,0-6.9,11.8l-12.5-2.2-3.5,19.7,12.5,2.2a48.3,48.3,0,0,0,2.4,13.5l-11,6.3,10,17.4,11-6.4a48.9,48.9,0,0,0,10.5,8.8l-4.3,11.9,18.8,6.9,4.3-11.9a48.6,48.6,0,0,0,13.7,0l4.3,11.9,18.8-6.9Zm-25.7-15.6a25.6,25.6,0,1,1,25.6-25.6A25.6,25.6,0,0,1,2880.4,687.4Z" transform="translate(-2764.7 -553.8)"/>
      <path class="39d7d364-8d5a-4fd0-9d23-70167f291445" d="M2992.2,718.1l-8.6,2.8a34.8,34.8,0,0,0-6-7.7l4.8-7.7-12.2-7.6-4.8,7.7a34.5,34.5,0,0,0-9.6-2.1l-1.3-9-14.2,2,1.3,9a34.5,34.5,0,0,0-8.6,4.6l-6.7-6.1-9.6,10.6,6.7,6.1a34.8,34.8,0,0,0-3.7,9.1l-9.1-.3-0.5,14.3,9.1,0.3a34.6,34.6,0,0,0,3,9.3L2915,759l8.8,11.3,7.2-5.6a35.1,35.1,0,0,0,8.3,5.2l-1.9,8.9,14,3,1.9-8.9a34.9,34.9,0,0,0,9.7-1.4l4.3,8,12.7-6.7-4.3-8a35.1,35.1,0,0,0,6.6-7.3l8.4,3.4,5.4-13.3-8.4-3.4a34.7,34.7,0,0,0,.4-9.8l8.6-2.8Zm-36.3,38.2a18.3,18.3,0,1,1,15.6-20.7A18.3,18.3,0,0,1,2955.9,756.3Z" transform="translate(-2764.7 -553.8)"/>
      <path class="39d7d364-8d5a-4fd0-9d23-70167f291445" d="M3011.6,668.4l0.3-11.3-7.2-.2a27.5,27.5,0,0,0-2.4-7.3l5.6-4.4-7-8.9-5.6,4.4a27.4,27.4,0,0,0-6.6-4.1l1.5-7-11.1-2.3-1.5,7a27.2,27.2,0,0,0-7.6,1.1l-3.4-6.3-10,5.4,3.4,6.3a27.3,27.3,0,0,0-5.1,5.8l-6.7-2.7-4.2,10.5,6.7,2.7a27.4,27.4,0,0,0-.2,7.7l-6.8,2.3,3.6,10.8,6.8-2.3a27.3,27.3,0,0,0,4.8,6.1l-3.8,6.1,9.6,6,3.8-6.1a27.7,27.7,0,0,0,7.6,1.6l1,7.1,11.2-1.6-1-7.1a27.5,27.5,0,0,0,6.8-3.7l5.4,4.8,7.5-8.5-5.4-4.8a27.7,27.7,0,0,0,2.9-7.2Zm-27,6.1a14.5,14.5,0,1,1,5.9-19.6A14.5,14.5,0,0,1,2984.6,674.5Z" transform="translate(-2764.7 -553.8)"/>
    </g>
  </g>
</svg>
