<svg id="5754ccbf-c486-4733-bcc2-fb58c5c13bef" data-name="Formación" xmlns="http://www.w3.org/2000/svg" viewBox="0 0 926.5 197.6">
  <defs>
    <style>
      .\30 22ff11f-1264-4bf1-aed0-f9ca833c03a8, .\35 be44ef4-a0d0-45a1-b4fa-1727efe2f343, .e2f0cb66-30d5-4af8-9368-1ef0f87d2922 {
        fill: none;
      }

      .\30 22ff11f-1264-4bf1-aed0-f9ca833c03a8, .\35 be44ef4-a0d0-45a1-b4fa-1727efe2f343, .fae06271-cb09-4e1a-8129-0a03635522f8 {
        stroke: #c6d4de;
      }

      .\30 22ff11f-1264-4bf1-aed0-f9ca833c03a8, .\35 be44ef4-a0d0-45a1-b4fa-1727efe2f343 {
        stroke-linecap: round;
        stroke-width: 11.57px;
      }

      .\30 22ff11f-1264-4bf1-aed0-f9ca833c03a8, .\35 be44ef4-a0d0-45a1-b4fa-1727efe2f343, .e2f0cb66-30d5-4af8-9368-1ef0f87d2922, .fae06271-cb09-4e1a-8129-0a03635522f8 {
        stroke-miterlimit: 10;
      }

      .\35 be44ef4-a0d0-45a1-b4fa-1727efe2f343 {
        stroke-dasharray: 3.87 23.24;
      }

      .\37 f10dc7b-dfbd-42e1-9cf4-65a07e552ba8, .da999f29-097e-46de-b87f-bc10814d88e9 {
        fill: #c6d4de;
      }

      .\35 1717dba-fb6f-4249-af52-c6759bc56c9a, .da999f29-097e-46de-b87f-bc10814d88e9 {
        font-size: 25px;
        font-family: Segoe UI;
        font-weight: 700;
      }

      .\31 c6ca634-f5be-4494-afe2-3c96cdf34f1b, .fae06271-cb09-4e1a-8129-0a03635522f8 {
        fill: #036;
      }

      .\35 1717dba-fb6f-4249-af52-c6759bc56c9a, .\39 542b688-def6-4397-bfe5-27e50513bd6d {
        fill: #001b46;
      }

      .\34 ac70dc9-dc38-4bed-935f-a0cbcb488a27 {
        opacity: 0.5;
      }

      .e2f0cb66-30d5-4af8-9368-1ef0f87d2922 {
        stroke: #036;
        stroke-width: 4.86px;
      }

      .fae06271-cb09-4e1a-8129-0a03635522f8 {
        stroke-width: 1.62px;
      }
    </style>
  </defs>
  <title>mini_menu_rh</title>
  <g id="2cdb7d9b-4e19-4366-8219-4f89ca41823b" data-name="Path">
    <g>
      <line class="022ff11f-1264-4bf1-aed0-f9ca833c03a8" x1="109.3" y1="60.8" x2="111.3" y2="60.9"/>
      <line class="5be44ef4-a0d0-45a1-b4fa-1727efe2f343" x1="134.5" y1="61" x2="773.5" y2="65.4"/>
      <line class="022ff11f-1264-4bf1-aed0-f9ca833c03a8" x1="785.1" y1="65.4" x2="787" y2="65.5"/>
    </g>
  </g>
  <g id="8c55e66d-ae6f-497a-a55a-9d4b97e818b3" data-name="Formación-Pagina-Actual">
    <circle class="7f10dc7b-dfbd-42e1-9cf4-65a07e552ba8" cx="61.2" cy="60.4" r="60.4"/>
    <text class="da999f29-097e-46de-b87f-bc10814d88e9" transform="translate(8.7 161.7)">Formación</text>
    <circle class="1c6ca634-f5be-4494-afe2-3c96cdf34f1b" cx="44.8" cy="30.2" r="12.3"/>
    <polygon class="1c6ca634-f5be-4494-afe2-3c96cdf34f1b" points="55.2 99.5 55.2 77.6 55.2 75.6 55.2 72.8 56 72.8 57.1 50.6 78.3 39.6 76.5 36.2 77 37.1 99.7 24.1 98.7 22.3 76 35.3 75.5 34.3 56.2 44.3 49.2 44.3 44.6 49.7 40 44.3 30.1 46.1 29.4 68.2 33.7 68.2 33.9 72.8 34.5 72.8 34.5 75.6 34.5 77.6 34.5 99.5 33.7 99.5 28.8 100.6 28.8 105.1 33 105.1 37.8 104.3 37.9 105.1 43.3 105.1 43.3 100.1 43.3 99.5 43.3 77.6 46.4 77.6 46.4 99.5 46.4 100.1 46.4 105.1 51.8 105.1 51.9 104.3 56.8 105.1 61 105.1 61 100.6 56 99.5 55.2 99.5"/>
  </g>
  <g id="47636b2b-f0cc-4210-9cea-98aec15c2500" data-name="Recursos-Humanos2">
    <circle class="9542b688-def6-4397-bfe5-27e50513bd6d" cx="313.9" cy="60.4" r="60.4"/>
    <text class="51717dba-fb6f-4249-af52-c6759bc56c9a" transform="translate(206.8 156.9)">Gestión de <tspan x="128.7" y="0">R</tspan><tspan x="143.6" y="0">ecu</tspan><tspan x="183.2" y="0">r</tspan><tspan x="192.6" y="0">sos </tspan><tspan x="60.3" y="30">Humanos</tspan></text>
    <path class="1c6ca634-f5be-4494-afe2-3c96cdf34f1b" d="M6609.5,2033.4l18.8,19.3V2079h-15.6v-11.4l-15.8-20.8a4.5,4.5,0,0,1-1-2.8v-32a4.5,4.5,0,0,1,9.1,0v18.5a6,6,0,0,0-3,1.5,6.1,6.1,0,0,0-.1,8.6l8.6,8.8,1.2-1.1-8.6-8.8a4.5,4.5,0,0,1,.1-6.4,4.7,4.7,0,0,1,1.9-1.1,4.8,4.8,0,0,1,2.3-.1A4.5,4.5,0,0,1,6609.5,2033.4Zm54.9,0-18.9,19.3V2079h15.6v-11.3l15.8-20.8a4.4,4.4,0,0,0,1-2.8v-32a4.5,4.5,0,0,0-9.1,0v18.5a6,6,0,0,1,3,1.5,6.1,6.1,0,0,1,.1,8.6l-8.6,8.8-1.2-1.1,8.6-8.8a4.5,4.5,0,0,0-.1-6.4,4.6,4.6,0,0,0-1.9-1.1,4.7,4.7,0,0,0-2.3-.1A4.6,4.6,0,0,0,6664.3,2033.4Zm-27.4,7.2a17.8,17.8,0,1,0,0-35.7A17.8,17.8,0,0,0,6636.9,2040.6Z" transform="translate(-6322.5 -1978.7)"/>
  </g>
  <g id="1b9782ad-3c2c-4254-bc69-54ef82be10a9" data-name="Consultoría2">
    <circle class="7f10dc7b-dfbd-42e1-9cf4-65a07e552ba8" cx="570.3" cy="60.4" r="60.4"/>
    <text class="da999f29-097e-46de-b87f-bc10814d88e9" transform="translate(509.5 161.1)">Consul<tspan x="76.9" y="0">t</tspan><tspan x="85.8" y="0">oría</tspan></text>
    <g id="49349581-9d1b-40f6-af0f-53fa0596a9ba" data-name="search">
      <g>
        <path class="1c6ca634-f5be-4494-afe2-3c96cdf34f1b" d="M6931.4,2077.7h0a6.9,6.9,0,0,1-9.7,0l-21-21.1a6.9,6.9,0,0,1,0-9.7h0a6.9,6.9,0,0,1,9.7,0l21,21.1a6.9,6.9,0,0,1,0,9.7h0Z" transform="translate(-6322.5 -1978.7)"/>
        <path class="1c6ca634-f5be-4494-afe2-3c96cdf34f1b" d="M6895.5,2041.6" transform="translate(-6322.5 -1978.7)"/>
        <path class="1c6ca634-f5be-4494-afe2-3c96cdf34f1b" d="M6897.8,2005.8a26.9,26.9,0,1,0,0,38h0A26.9,26.9,0,0,0,6897.8,2005.8Zm-4.9,33.2a20,20,0,1,1,5.9-14.1A19.9,19.9,0,0,1,6892.9,2039Z" transform="translate(-6322.5 -1978.7)"/>
        <g class="4ac70dc9-dc38-4bed-935f-a0cbcb488a27">
          <path class="1c6ca634-f5be-4494-afe2-3c96cdf34f1b" d="M6874.6,2005.2h0Z" transform="translate(-6322.5 -1978.7)"/>
          <path class="1c6ca634-f5be-4494-afe2-3c96cdf34f1b" d="M6891.5,2040.3l-0.6.5Z" transform="translate(-6322.5 -1978.7)"/>
          <path class="1c6ca634-f5be-4494-afe2-3c96cdf34f1b" d="M6876.7,2004.9h0Z" transform="translate(-6322.5 -1978.7)"/>
          <path class="1c6ca634-f5be-4494-afe2-3c96cdf34f1b" d="M6888.4,2042.3l-0.9.5Z" transform="translate(-6322.5 -1978.7)"/>
          <path class="1c6ca634-f5be-4494-afe2-3c96cdf34f1b" d="M6890,2041.4l-0.8.5Z" transform="translate(-6322.5 -1978.7)"/>
        </g>
        <path class="1c6ca634-f5be-4494-afe2-3c96cdf34f1b" d="M6903.4,2049.7a3.4,3.4,0,0,1-4.9,0l-4.3-4.4a3.4,3.4,0,0,1,0-4.9h0a3.4,3.4,0,0,1,4.9,0l4.3,4.4a3.4,3.4,0,0,1,0,4.9h0Z" transform="translate(-6322.5 -1978.7)"/>
      </g>
    </g>
  </g>
  <g id="d7b692d3-41d3-4974-8784-39564eb58448" data-name="Auditoría2">
    <circle class="7f10dc7b-dfbd-42e1-9cf4-65a07e552ba8" cx="832.6" cy="60.4" r="60.4"/>
    <text class="da999f29-097e-46de-b87f-bc10814d88e9" transform="translate(781.7 161.1)">Audi<tspan x="53" y="0">t</tspan><tspan x="61.9" y="0">oría</tspan></text>
    <g>
      <path class="e2f0cb66-30d5-4af8-9368-1ef0f87d2922" d="M7187.7,2077.3a2.9,2.9,0,0,1-2.9,2.9h-58.4a2.9,2.9,0,0,1-2.9-2.9v-75.3a2.9,2.9,0,0,1,2.9-2.9h58.4a2.9,2.9,0,0,1,2.9,2.9v75.3Z" transform="translate(-6322.5 -1978.7)"/>
      <rect class="1c6ca634-f5be-4494-afe2-3c96cdf34f1b" x="806.3" y="25.7" width="53.7" height="70.64"/>
      <path class="fae06271-cb09-4e1a-8129-0a03635522f8" d="M7168.1,2006.9V2004a1.7,1.7,0,0,0-1.7-1.7h-21.5a1.7,1.7,0,0,0-1.7,1.7v2.9h25Z" transform="translate(-6322.5 -1978.7)"/>
      <circle class="fae06271-cb09-4e1a-8129-0a03635522f8" cx="833.1" cy="23.4" r="4"/>
      <path class="7f10dc7b-dfbd-42e1-9cf4-65a07e552ba8" d="M7157.4,2002.1a1.7,1.7,0,1,1-1.7-1.7A1.7,1.7,0,0,1,7157.4,2002.1Z" transform="translate(-6322.5 -1978.7)"/>
      <g>
        <rect class="7f10dc7b-dfbd-42e1-9cf4-65a07e552ba8" x="819.3" y="44.5" width="33.5" height="1.77"/>
        <rect class="7f10dc7b-dfbd-42e1-9cf4-65a07e552ba8" x="819.3" y="51.8" width="33.5" height="1.76"/>
        <rect class="7f10dc7b-dfbd-42e1-9cf4-65a07e552ba8" x="819.3" y="59" width="33.5" height="1.76"/>
        <rect class="7f10dc7b-dfbd-42e1-9cf4-65a07e552ba8" x="819.3" y="66.2" width="33.5" height="1.76"/>
      </g>
      <path class="7f10dc7b-dfbd-42e1-9cf4-65a07e552ba8" d="M7135.6,2026.2l-0.6-.2-1.3-1.4a0.8,0.8,0,0,1,1.2-1.1l0.7,0.7,2.3-2.8a0.8,0.8,0,0,1,1.2,1l-2.9,3.6a0.8,0.8,0,0,1-.6.3h0Z" transform="translate(-6322.5 -1978.7)"/>
      <path class="7f10dc7b-dfbd-42e1-9cf4-65a07e552ba8" d="M7135.6,2033.2l-0.6-.2-1.3-1.4a0.8,0.8,0,1,1,1.2-1.1l0.7,0.7,2.3-2.8a0.8,0.8,0,1,1,1.2,1l-2.9,3.6a0.8,0.8,0,0,1-.6.3h0Z" transform="translate(-6322.5 -1978.7)"/>
      <path class="7f10dc7b-dfbd-42e1-9cf4-65a07e552ba8" d="M7135.6,2040.1l-0.6-.2-1.3-1.4a0.8,0.8,0,0,1,1.2-1.1l0.7,0.7,2.3-2.8a0.8,0.8,0,1,1,1.2,1l-2.9,3.6a0.8,0.8,0,0,1-.6.3h0Z" transform="translate(-6322.5 -1978.7)"/>
      <path class="7f10dc7b-dfbd-42e1-9cf4-65a07e552ba8" d="M7157.2,2065.6h-0.1a1.3,1.3,0,0,1-.8-1.1,5.1,5.1,0,0,1,.6-4.1,6.3,6.3,0,0,0-.5-1.2,0.4,0.4,0,1,1,.8-0.4l0.4,0.8a4.3,4.3,0,0,1,3-1.3c1.5,0,2.8,1.3,3.6,2.6h0.1a7.9,7.9,0,0,1,4.2-1.5c1.3,0.2,1.5,1.4,1.5,2.2a3.8,3.8,0,0,0,.6-1.1c0.3-1,.7-0.9,2.9-0.5h0.5a0.5,0.5,0,0,1,.4.5,0.4,0.4,0,0,1-.5.4h-0.5l-1.8-.3h0a0.3,0.3,0,0,1,0,.2,4.7,4.7,0,0,1-.8,1.5,1.1,1.1,0,0,1-1.1.7,1,1,0,0,1-.4-1.1c0-1-.1-1.6-0.7-1.6a7.2,7.2,0,0,0-3.7,1.4,2.3,2.3,0,0,1,.1,2.2,1.1,1.1,0,0,1-1.3.3,1.1,1.1,0,0,1-1-1.3,2.9,2.9,0,0,1,1.1-1.4v-0.2c-0.6-1-1.8-2.2-2.9-2.2a3.4,3.4,0,0,0-2.7,1.4c0.5,2,.3,4.1-0.1,4.7A0.7,0.7,0,0,1,7157.2,2065.6Zm0-3.8a4.2,4.2,0,0,0,0,2.4h0A8.1,8.1,0,0,0,7157.2,2061.8Zm6.8,0.6a1.7,1.7,0,0,0-.6.8s0,0.1.3,0.3h0.4A1.5,1.5,0,0,0,7164,2062.4Z" transform="translate(-6322.5 -1978.7)"/>
    </g>
  </g>
</svg>
