<svg id="e78967d1-ce57-45a6-8d31-e298dd5221f2" data-name="Quienes Somos" xmlns="http://www.w3.org/2000/svg" viewBox="0 0 791.1 194.1">
  <defs>
    <style>
      .\34 806b4b0-0406-4f16-ad5b-7ec952fd0596, .d57b67a6-1701-489b-ba2e-849fd0049c58 {
        fill: none;
        stroke: #c6d4de;
        stroke-linecap: round;
        stroke-miterlimit: 10;
        stroke-width: 11.57px;
      }

      .d57b67a6-1701-489b-ba2e-849fd0049c58 {
        stroke-dasharray: 3.8 22.78;
      }

      .\31 b7e5c85-cce7-4ff3-8300-b918f7cf0b17, .a042842a-528f-4c84-84ca-fdeef092ca44 {
        fill: #001b46;
      }

      .\35 46ea302-a1b6-4ade-9fba-c647225d4301, .a042842a-528f-4c84-84ca-fdeef092ca44 {
        font-size: 25px;
        font-family: Segoe UI;
      }

      .\35 46ea302-a1b6-4ade-9fba-c647225d4301, .\39 344dce0-1ba1-4f2d-9361-d527ba6a0761, .a042842a-528f-4c84-84ca-fdeef092ca44 {
        font-weight: 700;
      }

      .\36 eb52406-3208-4382-9d73-9d1d069a5f73, .\39 344dce0-1ba1-4f2d-9361-d527ba6a0761 {
        fill: #036;
      }

      .\35 46ea302-a1b6-4ade-9fba-c647225d4301, .ddfaaedd-299d-48b9-85bd-1e2396a8e7a5 {
        fill: #c6d4de;
      }

      .\39 344dce0-1ba1-4f2d-9361-d527ba6a0761 {
        font-size: 44.18px;
        font-family: Plateia;
      }

      .\36 a375383-eb96-4df4-9368-cc225e4162f3 {
        letter-spacing: 1px;
      }
    </style>
  </defs>
  <title>mini_menu_hacemos</title>
  <g id="aeba7466-4c4a-4c47-b603-4cdd85741ccd" data-name="Path">
    <g>
      <line class="4806b4b0-0406-4f16-ad5b-7ec952fd0596" x1="137.4" y1="65.2" x2="139.3" y2="65.2"/>
      <line class="d57b67a6-1701-489b-ba2e-849fd0049c58" x1="162.1" y1="65.3" x2="629.1" y2="66.1"/>
      <line class="4806b4b0-0406-4f16-ad5b-7ec952fd0596" x1="640.5" y1="66.2" x2="642.4" y2="66.2"/>
    </g>
  </g>
  <g id="e505b333-3682-4f35-a1d2-b22e3b4c8a7d" data-name="Que-Hacemos-Pantalla-Actual">
    <circle class="1b7e5c85-cce7-4ff3-8300-b918f7cf0b17" cx="389.9" cy="59.8" r="59.8"/>
    <text class="a042842a-528f-4c84-84ca-fdeef092ca44" transform="translate(299.6 152.8)">¿Qué Hacemos?</text>
    <g>
      <path class="6eb52406-3208-4382-9d73-9d1d069a5f73" d="M972.5,2036.8a21.6,21.6,0,0,0,4.6-3.9l4.9,2.8,4.4-7.7-4.9-2.8a21.4,21.4,0,0,0,1-6l5.5-1-1.5-8.7-5.5,1a21.5,21.5,0,0,0-3-5.2l3.6-4.3-6.8-5.7-3.6,4.3a21.3,21.3,0,0,0-5.7-2.1V1992h-8.9v5.6a21.3,21.3,0,0,0-5.7,2.1l-3.6-4.3-6.8,5.7,3.6,4.3a21.5,21.5,0,0,0-3,5.2l-5.5-1-1.5,8.7,5.5,1a21.4,21.4,0,0,0,1,6l-4.9,2.8,4.4,7.7,4.9-2.8a21.6,21.6,0,0,0,4.6,3.9l-1.9,5.3,8.3,3,1.9-5.3,3,0.2,3-.2,1.9,5.3,8.3-3Zm-11.3-6.9a11.3,11.3,0,1,1,11.3-11.3A11.3,11.3,0,0,1,961.1,2029.9Z" transform="translate(-587.9 -1970.9)"/>
      <path class="6eb52406-3208-4382-9d73-9d1d069a5f73" d="M1010.5,2043.5l-3.8,1.2a15.4,15.4,0,0,0-2.7-3.4l2.1-3.4-5.4-3.4-2.1,3.4a15.2,15.2,0,0,0-4.2-.9l-0.6-4-6.3.9,0.6,4a15.3,15.3,0,0,0-3.8,2l-3-2.7-4.2,4.7,3,2.7a15.4,15.4,0,0,0-1.6,4h-4l-0.2,6.3h4a15.3,15.3,0,0,0,1.3,4.1l-3.2,2.5,3.9,5,3.2-2.5a15.5,15.5,0,0,0,3.7,2.3l-0.8,3.9,6.2,1.3,0.8-3.9h2.2l2.1-.4,1.9,3.5,5.6-3-1.9-3.5a15.5,15.5,0,0,0,2.9-3.2l3.7,1.5,2.4-5.9-3.7-1.5a15.4,15.4,0,0,0,.2-4.3l3.8-1.2Zm-16,16.9a8.1,8.1,0,1,1,6.9-9.1A8.1,8.1,0,0,1,994.5,2060.4Z" transform="translate(-587.9 -1970.9)"/>
      <path class="6eb52406-3208-4382-9d73-9d1d069a5f73" d="M1019.1,2021.5v-5h-3.2a12.1,12.1,0,0,0-1.1-3.2l2.5-2-3.1-3.9-2.5,2a12.1,12.1,0,0,0-2.9-1.8l0.6-3.1-4.9-1-0.6,3.1a12,12,0,0,0-3.4.5l-1.5-2.8-4.4,2.4,1.5,2.8a12.1,12.1,0,0,0-2.3,2.6l-2.9-1.2-1.9,4.6,2.9,1.2a12.1,12.1,0,0,0-.1,3.4l-3,1,1.6,4.8,3-1a12.1,12.1,0,0,0,2.1,2.7l-1.7,2.7,4.3,2.6,1.7-2.7a12.2,12.2,0,0,0,3.3.7l0.5,3.1,5-.7-0.5-3.1,1.6-.7,1.4-.9,2.4,2.1,3.3-3.7-2.4-2.1a12.3,12.3,0,0,0,1.3-3.2h3.2Zm-11.9,2.7a6.4,6.4,0,1,1,2.6-8.7A6.4,6.4,0,0,1,1007.1,2024.2Z" transform="translate(-587.9 -1970.9)"/>
    </g>
  </g>
  <g id="149dc5a1-b4d2-4c44-86d9-443f9cd01736" data-name="Quienes2">
    <circle class="ddfaaedd-299d-48b9-85bd-1e2396a8e7a5" cx="100.8" cy="59.8" r="59.8"/>
    <text class="546ea302-a1b6-4ade-9fba-c647225d4301" transform="translate(6.7 152.9)">¿Quienes Somos?</text>
    <text class="9344dce0-1ba1-4f2d-9361-d527ba6a0761" transform="translate(84.3 39.9)">?</text>
    <path class="6eb52406-3208-4382-9d73-9d1d069a5f73" d="M697.2,2026.8a13.4,13.4,0,0,1,6.3,10A10.8,10.8,0,1,0,697.2,2026.8Zm-7.1,22.2a10.9,10.9,0,1,0-10.9-10.9A10.8,10.8,0,0,0,690.1,2049.1Zm4.6,0.7h-9.2a13.9,13.9,0,0,0-13.9,13.9v11.4l0.8,0.2a63.3,63.3,0,0,0,18.9,3c10.2,0,16.1-2.9,16.5-3.1l0.7-.4h0.1v-11.3A13.9,13.9,0,0,0,694.7,2049.8Zm18-11.2h-9.1a13.4,13.4,0,0,1-4.1,9.3,16.5,16.5,0,0,1,11.8,15.8v3.5c9-.3,14.2-2.9,14.6-3.1l0.7-.4h0.1v-11.3A13.9,13.9,0,0,0,712.7,2038.6Zm-41.6-.8a10.7,10.7,0,0,0,5.8-1.7,13.4,13.4,0,0,1,5-8.6c0-.2,0-0.4,0-0.6A10.9,10.9,0,1,0,671.1,2037.9Zm9.8,10.1a13.3,13.3,0,0,1-4.1-9.3H666.5a13.9,13.9,0,0,0-13.9,13.9v11.4l0.8,0.2a65.4,65.4,0,0,0,15.6,2.9v-3.4A16.5,16.5,0,0,1,680.8,2047.9Z" transform="translate(-587.9 -1970.9)"/>
  </g>
  <g id="ca37691c-9ff5-4bd4-9e9a-1755cffccb73" data-name="Donde2">
    <circle class="ddfaaedd-299d-48b9-85bd-1e2396a8e7a5" cx="671.5" cy="59.8" r="59.8"/>
    <text class="546ea302-a1b6-4ade-9fba-c647225d4301" transform="translate(561.6 153)">¿Donde P<tspan x="108.4" y="0">r</tspan><tspan x="117.4" y="0">estamos </tspan><tspan x="50" y="30">Se</tspan><tspan class="6a375383-eb96-4df4-9368-cc225e4162f3" x="76.9" y="30">r</tspan><tspan x="87.1" y="30">vicios?</tspan></text>
    <path class="6eb52406-3208-4382-9d73-9d1d069a5f73" d="M1295.4,2028a36.8,36.8,0,0,0-7.2,10.7,5.5,5.5,0,0,1-10.1,0c-2.1-5.2-5.3-8.8-8.5-12.2l-2.3-2.6h-0.1c-3,.9-5.4,4.9-4,8.2s7.7,1.8,7.1,6.7,4.7,5,6.5,4.8,4.7,3,3.2,4.4-4.1,1.5-3.7,5.2c0.1,1.1,3.3.9,3.3,2.5s-1.7,3.5-.4,5.4a4.4,4.4,0,0,0,.9,1,34.7,34.7,0,0,1-54.3-41.6,20.3,20.3,0,0,0,4.9,13c5.1,5.1,12.5,3.5,13.4,7.7s-5.1,4.3-4.7,7.5,8.3,4.1,6.5,7.1,1.6,4.3.4,9.2c-0.6,2.7,3.3,3.2,4.7,1.2s0.9-3.5,3.1-5.8,9-3.3,8.3-8.1c-1.2-7.9-8.9-9.1-12.2-11s-2.9-7.1-3.7-9.5-5.1.9-7.1-1,0.6-7.8,3.5-7.7c6.1,0.2,7.9,6.1,10.2,5.9s3.6-3.2,4-4.9c0.8-3.5-1.4-1.9-2.2-3.8s4.1-4.8,6.2-6.6a2.8,2.8,0,0,0,.7-0.8c0.6-1.2-.2-2.1-1.6-3s-7.7-3-8-5.6,2.9-2.4,6.4-2.5h1.7a23.2,23.2,0,0,1,1.4-4.8,38.5,38.5,0,0,0-5.1-.3,39.6,39.6,0,1,0,39.6,39.6A38.8,38.8,0,0,0,1295.4,2028Zm-14.1-41.1c-11.2,1.1-18.8,11.9-16.9,23s12.3,14.7,17.5,27.3a1.4,1.4,0,0,0,2.5,0c5.7-14,17.8-16.7,17.8-31.3A19.1,19.1,0,0,0,1281.3,1986.9Zm1.9,29.1a10.1,10.1,0,1,1,10.1-10.1A10.1,10.1,0,0,1,1283.1,2016Z" transform="translate(-587.9 -1970.9)"/>
  </g>
</svg>
