<svg id="414f0c76-12b1-4d8b-a84a-a6f188abe397" data-name="Quienes Somos" xmlns="http://www.w3.org/2000/svg" viewBox="0 0 791.1 194.1">
  <defs>
    <style>
      .\37 fbf46de-7408-433e-a8b6-8afb4b8b7390, .faa7378f-4f10-4b1a-ae52-e79675a53244 {
        fill: none;
        stroke: #c6d4de;
        stroke-linecap: round;
        stroke-miterlimit: 10;
        stroke-width: 11.57px;
      }

      .faa7378f-4f10-4b1a-ae52-e79675a53244 {
        stroke-dasharray: 3.8 22.78;
      }

      .\34 35e3b42-eae9-498c-a1c9-36c7909107f0, .cc9617b7-0b36-49d7-978b-80abb2cbfa80 {
        fill: #c6d4de;
      }

      .\34 35e3b42-eae9-498c-a1c9-36c7909107f0, .\38 2ad3fb0-c71a-4c47-a969-9ec39e32543c {
        font-size: 25px;
        font-family: Segoe UI;
      }

      .\34 35e3b42-eae9-498c-a1c9-36c7909107f0, .\38 2ad3fb0-c71a-4c47-a969-9ec39e32543c, .\38 63dfd1a-f235-488c-8c0a-cabf6f16b3c7 {
        font-weight: 700;
      }

      .\38 63dfd1a-f235-488c-8c0a-cabf6f16b3c7, .d6972c67-27a2-4aca-b5f0-64e051f1d213 {
        fill: #036;
      }

      .\38 63dfd1a-f235-488c-8c0a-cabf6f16b3c7 {
        font-size: 44.18px;
        font-family: Plateia;
      }

      .\38 2ad3fb0-c71a-4c47-a969-9ec39e32543c, .be510342-b55a-41be-bd6a-bb00d611d8d2 {
        fill: #001b46;
      }

      .\36 822770a-2e08-4291-94cc-f15bb00c2e52 {
        letter-spacing: 1px;
      }
    </style>
  </defs>
  <title>mini_menu_donde</title>
  <g id="1fa845f4-b8dc-4a97-b5f0-08dae0dea7ac" data-name="Path">
    <g>
      <line class="7fbf46de-7408-433e-a8b6-8afb4b8b7390" x1="132.6" y1="61.7" x2="134.5" y2="61.7"/>
      <line class="faa7378f-4f10-4b1a-ae52-e79675a53244" x1="157.3" y1="61.7" x2="624.3" y2="62.6"/>
      <line class="7fbf46de-7408-433e-a8b6-8afb4b8b7390" x1="635.7" y1="62.6" x2="637.6" y2="62.6"/>
    </g>
  </g>
  <g id="5c3294f9-1074-41e0-b423-a8d3273e98b3" data-name="Que-Hacemos-Pantalla-Actual copy">
    <circle class="cc9617b7-0b36-49d7-978b-80abb2cbfa80" cx="389.9" cy="59.8" r="59.8"/>
    <text class="435e3b42-eae9-498c-a1c9-36c7909107f0" transform="translate(302 152.8)">¿Qué Hacemos?</text>
    <g>
      <path class="d6972c67-27a2-4aca-b5f0-64e051f1d213" d="M2933.8,2323.1a21.6,21.6,0,0,0,4.6-3.9l4.9,2.8,4.4-7.7-4.9-2.8a21.4,21.4,0,0,0,1-6l5.5-1-1.5-8.7-5.5,1a21.5,21.5,0,0,0-3-5.2l3.6-4.3-6.8-5.7-3.6,4.3a21.3,21.3,0,0,0-5.7-2.1v-5.6h-8.9v5.6a21.3,21.3,0,0,0-5.7,2.1l-3.6-4.3-6.8,5.7,3.6,4.3a21.5,21.5,0,0,0-3,5.2l-5.5-1-1.5,8.7,5.5,1a21.4,21.4,0,0,0,1,6l-4.9,2.8,4.4,7.7,4.9-2.8a21.6,21.6,0,0,0,4.6,3.9l-1.9,5.3,8.3,3,1.9-5.3,3,0.2,3-.2,1.9,5.3,8.3-3Zm-11.3-6.9a11.3,11.3,0,1,1,11.3-11.3A11.3,11.3,0,0,1,2922.5,2316.2Z" transform="translate(-2549.3 -2257.1)"/>
      <path class="d6972c67-27a2-4aca-b5f0-64e051f1d213" d="M2971.9,2329.7l-3.8,1.2a15.4,15.4,0,0,0-2.7-3.4l2.1-3.4-5.4-3.4-2.1,3.4a15.2,15.2,0,0,0-4.2-.9l-0.6-4-6.3.9,0.6,4a15.3,15.3,0,0,0-3.8,2l-3-2.7-4.2,4.7,3,2.7a15.4,15.4,0,0,0-1.6,4h-4l-0.2,6.3h4a15.3,15.3,0,0,0,1.3,4.1l-3.2,2.5,3.9,5,3.2-2.5a15.5,15.5,0,0,0,3.7,2.3l-0.8,3.9,6.2,1.3,0.8-3.9h2.2l2.1-.4,1.9,3.5,5.6-3-1.9-3.5a15.5,15.5,0,0,0,2.9-3.2l3.7,1.5,2.4-5.9-3.7-1.5a15.4,15.4,0,0,0,.2-4.3l3.8-1.2Zm-16,16.9a8.1,8.1,0,1,1,6.9-9.1A8.1,8.1,0,0,1,2955.9,2346.6Z" transform="translate(-2549.3 -2257.1)"/>
      <path class="d6972c67-27a2-4aca-b5f0-64e051f1d213" d="M2980.5,2307.8v-5h-3.2a12.1,12.1,0,0,0-1.1-3.2l2.5-2-3.1-3.9-2.5,2a12.1,12.1,0,0,0-2.9-1.8l0.6-3.1-4.9-1-0.6,3.1a12,12,0,0,0-3.4.5l-1.5-2.8-4.4,2.4,1.5,2.8a12.1,12.1,0,0,0-2.3,2.6l-2.9-1.2-1.9,4.6,2.9,1.2a12.1,12.1,0,0,0-.1,3.4l-3,1,1.6,4.8,3-1a12.1,12.1,0,0,0,2.1,2.7l-1.7,2.7,4.3,2.6,1.7-2.7a12.2,12.2,0,0,0,3.3.7l0.5,3.1,5-.7-0.5-3.1,1.6-.7,1.4-.9,2.4,2.1,3.3-3.7-2.4-2.1a12.3,12.3,0,0,0,1.3-3.2h3.2Zm-11.9,2.7a6.4,6.4,0,1,1,2.6-8.7A6.4,6.4,0,0,1,2968.5,2310.4Z" transform="translate(-2549.3 -2257.1)"/>
    </g>
  </g>
  <g id="0eb7e773-fc3e-4949-8953-782bfabb795a" data-name="Quienes3">
    <circle class="cc9617b7-0b36-49d7-978b-80abb2cbfa80" cx="100.8" cy="59.8" r="59.8"/>
    <text class="435e3b42-eae9-498c-a1c9-36c7909107f0" transform="translate(6.7 152.9)">¿Quienes Somos?</text>
    <text class="863dfd1a-f235-488c-8c0a-cabf6f16b3c7" transform="translate(84.3 39.9)">?</text>
    <path class="d6972c67-27a2-4aca-b5f0-64e051f1d213" d="M2658.6,2313.1a13.4,13.4,0,0,1,6.3,10A10.8,10.8,0,1,0,2658.6,2313.1Zm-7.1,22.2a10.9,10.9,0,1,0-10.9-10.9A10.8,10.8,0,0,0,2651.5,2335.3Zm4.6,0.7h-9.2A13.9,13.9,0,0,0,2633,2350v11.4l0.8,0.2a63.3,63.3,0,0,0,18.9,3c10.2,0,16.1-2.9,16.5-3.1l0.7-.4h0.1V2350A13.9,13.9,0,0,0,2656.1,2336.1Zm18-11.2h-9.1a13.4,13.4,0,0,1-4.1,9.3,16.5,16.5,0,0,1,11.8,15.8v3.5c9-.3,14.2-2.9,14.6-3.1l0.7-.4h0.1v-11.3A13.9,13.9,0,0,0,2674.1,2324.9Zm-41.6-.8a10.7,10.7,0,0,0,5.8-1.7,13.4,13.4,0,0,1,5-8.6c0-.2,0-0.4,0-0.6A10.9,10.9,0,1,0,2632.5,2324.1Zm9.8,10.1a13.3,13.3,0,0,1-4.1-9.3h-10.2a13.9,13.9,0,0,0-13.9,13.9v11.4l0.8,0.2a65.4,65.4,0,0,0,15.6,2.9V2350A16.5,16.5,0,0,1,2642.2,2334.2Z" transform="translate(-2549.3 -2257.1)"/>
  </g>
  <g id="87754624-27e0-4811-9850-41b5bd372913" data-name="Donde-Pantalla-Actual">
    <circle class="be510342-b55a-41be-bd6a-bb00d611d8d2" cx="671.5" cy="59.8" r="59.8"/>
    <text class="82ad3fb0-c71a-4c47-a969-9ec39e32543c" transform="translate(561.6 153)">¿Donde P<tspan x="108.4" y="0">r</tspan><tspan x="117.4" y="0">estamos </tspan><tspan x="50" y="30">Se</tspan><tspan class="6822770a-2e08-4291-94cc-f15bb00c2e52" x="76.9" y="30">r</tspan><tspan x="87.1" y="30">vicios?</tspan></text>
    <path class="d6972c67-27a2-4aca-b5f0-64e051f1d213" d="M3256.7,2314.2a36.8,36.8,0,0,0-7.2,10.7,5.5,5.5,0,0,1-10.1,0c-2.1-5.2-5.3-8.8-8.5-12.2l-2.3-2.6h-0.1c-3,.9-5.4,4.9-4,8.2s7.7,1.8,7.1,6.7,4.7,5,6.5,4.8,4.7,3,3.2,4.4-4.1,1.5-3.7,5.2c0.1,1.1,3.3.9,3.3,2.5s-1.7,3.5-.4,5.4a4.4,4.4,0,0,0,.9,1,34.7,34.7,0,0,1-54.3-41.6,20.3,20.3,0,0,0,4.9,13c5.1,5.1,12.5,3.5,13.4,7.7s-5.1,4.3-4.7,7.5,8.3,4.1,6.5,7.1,1.6,4.3.4,9.2c-0.6,2.7,3.3,3.2,4.7,1.2s0.9-3.5,3.1-5.8,9-3.3,8.3-8.1c-1.2-7.9-8.9-9.1-12.2-11s-2.9-7.1-3.7-9.5-5.1.9-7.1-1,0.6-7.8,3.5-7.7c6.1,0.2,7.9,6.1,10.2,5.9s3.6-3.2,4-4.9c0.8-3.5-1.4-1.9-2.2-3.8s4.1-4.8,6.2-6.6a2.8,2.8,0,0,0,.7-0.8c0.6-1.2-.2-2.1-1.6-3s-7.7-3-8-5.6,2.9-2.4,6.4-2.5h1.7a23.2,23.2,0,0,1,1.4-4.8,38.5,38.5,0,0,0-5.1-.3,39.6,39.6,0,1,0,39.6,39.6A38.8,38.8,0,0,0,3256.7,2314.2Zm-14.1-41.1c-11.2,1.1-18.8,11.9-16.9,23s12.3,14.7,17.5,27.3a1.4,1.4,0,0,0,2.5,0c5.7-14,17.8-16.7,17.8-31.3A19.1,19.1,0,0,0,3242.7,2273.1Zm1.9,29.1a10.1,10.1,0,1,1,10.1-10.1A10.1,10.1,0,0,1,3244.5,2302.2Z" transform="translate(-2549.3 -2257.1)"/>
  </g>
</svg>
