<svg id="110ed7bd-2581-4289-8eeb-5807cfb2c1bd" data-name="Acerca Menú" xmlns="http://www.w3.org/2000/svg" viewBox="0 0 636.7 402">
  <defs>
    <style>
      .a17e9957-d496-4b2b-883a-05a204d938db, .f3d8a612-09a4-4ccc-9d05-472f7836385e {
        fill: none;
        stroke: #c6d4de;
        stroke-linecap: round;
        stroke-miterlimit: 10;
        stroke-width: 11.57px;
      }

      .a17e9957-d496-4b2b-883a-05a204d938db {
        stroke-dasharray: 3.86 23.14;
      }

      .afd36fc9-d285-4d5c-8630-088918dcadc3, .b93f6fff-9f4f-4141-81bf-0400f0f8ab27 {
        fill: #c6d4de;
      }

      .b93f6fff-9f4f-4141-81bf-0400f0f8ab27 {
        font-size: 40px;
        font-family: Segoe UI;
        font-weight: 700;
      }

      .\37 12f2407-3400-4311-aad8-199c1c48f592 {
        letter-spacing: 1px;
      }

      .\33 8011954-6ae7-4e73-804d-9d9c5340f733 {
        fill: #036;
      }
    </style>
  </defs>
  <title>prestamos</title>
  <g id="2a0cfaa6-d8ee-4dee-8c8f-f7f9db0da3c7" data-name="Path">
    <g>
      <line class="f3d8a612-09a4-4ccc-9d05-472f7836385e" x1="5.8" y1="135.5" x2="7.7" y2="135.5"/>
      <line class="a17e9957-d496-4b2b-883a-05a204d938db" x1="30.9" y1="135.5" x2="289.3" y2="135.5"/>
      <line class="f3d8a612-09a4-4ccc-9d05-472f7836385e" x1="300.9" y1="135.5" x2="302.8" y2="135.5"/>
    </g>
  </g>
  <g id="76705295-f076-440a-b175-5535ffdbe64e" data-name="Donde">
    <circle class="afd36fc9-d285-4d5c-8630-088918dcadc3" cx="438.2" cy="135.5" r="135.5"/>
    <text class="b93f6fff-9f4f-4141-81bf-0400f0f8ab27" transform="translate(280 330.6)">¿Donde P<tspan x="173.4" y="0">r</tspan><tspan x="187.9" y="0">estamos </tspan><tspan x="80" y="48">Se</tspan><tspan class="712f2407-3400-4311-aad8-199c1c48f592" x="123" y="48">r</tspan><tspan x="139.4" y="48">vicios?</tspan></text>
    <path class="38011954-6ae7-4e73-804d-9d9c5340f733" d="M3550.9,683c-6.1,6.8-12,14.2-16.2,24.3a12.4,12.4,0,0,1-23,0c-4.8-11.8-12.1-19.8-19.2-27.6l-5.3-5.9H3487c-6.9,2.1-12.2,11.2-9,18.6,2.2,5.1,17.4,4.1,16.1,15.1-1.1,9,10.6,11.3,14.8,10.9s10.5,6.8,7.3,10.1-9.2,3.4-8.3,11.7c0.2,2.4,7.6,2.1,7.6,5.8s-3.8,7.9-.9,12.1a9.9,9.9,0,0,0,2,2.2,78.6,78.6,0,0,1-122.8-94.3c0,14.1,7.5,25.8,11,29.4,11.5,11.5,28.3,7.9,30.4,17.5s-11.5,9.6-10.6,17,18.7,9.3,14.7,16.1c-5.2,9,3.5,9.7,1,20.8-1.4,6.1,7.4,7.3,10.7,2.6s2-7.9,7-13.2,20.3-7.6,18.7-18.3c-2.7-17.9-20.1-20.7-27.6-24.9s-6.5-16-8.3-21.4c-2.6-7.7-11.4,2.1-16.2-2.3-7.8-7.3,1.4-17.7,7.9-17.5,13.7,0.4,18,13.8,23,13.3s8.1-7.3,9-11c1.8-8-3.1-4.4-5.1-8.6s9.4-10.9,14-15a6.3,6.3,0,0,0,1.5-1.8c1.4-2.7-.4-4.8-3.5-6.7-6.2-3.8-17.5-6.7-18.1-12.6-0.3-3.6,6.6-5.3,14.4-5.6l3.9,0.3a52.4,52.4,0,0,1,3.1-10.8,87.2,87.2,0,0,0-11.4-.7,89.7,89.7,0,1,0,89.7,89.7A87.9,87.9,0,0,0,3550.9,683ZM3519,590c-25.3,2.4-42.7,26.9-38.2,52s27.9,33.3,39.6,61.8a3.1,3.1,0,0,0,5.7,0c12.9-31.7,40.3-37.9,40.3-70.8A43.2,43.2,0,0,0,3519,590Zm4.2,65.8A22.8,22.8,0,1,1,3546,633,22.8,22.8,0,0,1,3523.2,655.8Z" transform="translate(-3031.2 -553.8)"/>
  </g>
</svg>
