<svg id="9f45ddf9-df2f-4bad-bafe-878930240efc" data-name="Capa 1" xmlns="http://www.w3.org/2000/svg" viewBox="0 0 483.4 247.4">
  <defs>
    <style>
      .d6c89cab-6394-4618-b936-485e0ad21d0b {
        fill: #fff;
        stroke: #9c3;
        stroke-miterlimit: 10;
        stroke-width: 3px;
      }

      .\33 1fa9837-9e7f-47b9-b11f-d9a75c39cdb2 {
        font-size: 12px;
        font-family: Segoe UI;
      }
    </style>
  </defs>
  <title>servicios_consultoria</title>
  <g>
    <g>
      <circle class="d6c89cab-6394-4618-b936-485e0ad21d0b" cx="57.7" cy="58.7" r="56.2"/>
      <text class="31fa9837-9e7f-47b9-b11f-d9a75c39cdb2" transform="translate(37.9 38.9)">Análisis <tspan x="13.1" y="14.4">de </tspan><tspan x="-21.9" y="28.8">Necesidades de </tspan><tspan x="-8.1" y="43.2">Formación</tspan></text>
    </g>
    <g>
      <circle class="d6c89cab-6394-4618-b936-485e0ad21d0b" cx="180.4" cy="58.7" r="56.2"/>
      <text class="31fa9837-9e7f-47b9-b11f-d9a75c39cdb2" transform="translate(147.4 45.1)">Mejora en la<tspan x="1.8" y="14.4">Satisfacción</tspan><tspan x="4.9" y="28.8">del Cliente</tspan></text>
    </g>
    <g>
      <circle class="d6c89cab-6394-4618-b936-485e0ad21d0b" cx="303" cy="57.7" r="56.2"/>
      <text class="31fa9837-9e7f-47b9-b11f-d9a75c39cdb2" transform="translate(271.3 53.2)">Optimización<tspan x="3.3" y="14.4">de Procesos</tspan></text>
    </g>
    <g>
      <circle class="d6c89cab-6394-4618-b936-485e0ad21d0b" cx="425.7" cy="58.7" r="56.2"/>
      <text class="31fa9837-9e7f-47b9-b11f-d9a75c39cdb2" transform="translate(382.4 35.9)">Análisis de perfil<tspan x="3.9" y="14.4">de los emplea</tspan><tspan x="77.8" y="14.4">-</tspan><tspan x="33.7" y="28.8">dos</tspan><tspan x="11.4" y="43.2">y análisis de </tspan><tspan x="6.8" y="57.6">competencias</tspan></text>
    </g>
  </g>
  <g>
    <g>
      <circle class="d6c89cab-6394-4618-b936-485e0ad21d0b" cx="57.7" cy="189.7" r="56.2"/>
      <text class="31fa9837-9e7f-47b9-b11f-d9a75c39cdb2" transform="translate(16.6 176.1)">V<tspan x="6.7" y="0">enta Adicional</tspan><tspan x="34.4" y="14.4">de</tspan><tspan x="-0.3" y="28.8">Servicios/</tspan><tspan x="50.5" y="28.8">P</tspan><tspan x="56.8" y="28.8">artes</tspan></text>
    </g>
    <g>
      <circle class="d6c89cab-6394-4618-b936-485e0ad21d0b" cx="180.4" cy="189.7" r="56.2"/>
      <text class="31fa9837-9e7f-47b9-b11f-d9a75c39cdb2" transform="translate(137.6 177.1)">Implementación <tspan x="3.2" y="14.4">y Optimización </tspan><tspan x="3.9" y="28.8">de Indicadores</tspan></text>
    </g>
    <g>
      <circle class="d6c89cab-6394-4618-b936-485e0ad21d0b" cx="303" cy="188.7" r="56.2"/>
      <text class="31fa9837-9e7f-47b9-b11f-d9a75c39cdb2" transform="translate(261.8 185.2)">Incremento en la <tspan x="11.5" y="14.4">R</tspan><tspan x="18.4" y="14.4">entabilidad</tspan></text>
    </g>
    <g>
      <circle class="d6c89cab-6394-4618-b936-485e0ad21d0b" cx="425.7" cy="189.7" r="56.2"/>
      <text class="31fa9837-9e7f-47b9-b11f-d9a75c39cdb2" transform="translate(406.4 162.2)">P<tspan x="6.3" y="0">edido,</tspan><tspan x="-24.2" y="14.4">almacenamiento</tspan><tspan x="16.7" y="28.8">y </tspan><tspan x="-8.3" y="43.2">gestión de </tspan><tspan x="-7.6" y="57.6">R</tspan><tspan x="-0.8" y="57.6">epuestos</tspan></text>
    </g>
  </g>
</svg>
